HIERARCHY
ROOT joint_Root
{
	OFFSET 0.0 0.0 0.0
	CHANNELS 6 Xposition Yposition Zposition Zrotation Xrotation Yrotation 
	JOINT Hips
	{
		OFFSET 4.5925 91.4895 -427.239
		CHANNELS 6 Xposition Yposition Zposition Zrotation Xrotation Yrotation 
		JOINT Spine
		{
			OFFSET 15.7357 0.0 0.0
			CHANNELS 6 Xposition Yposition Zposition Zrotation Xrotation Yrotation 
			JOINT Chest
			{
				OFFSET 8.98455 -0.406207 0.0
				CHANNELS 6 Xposition Yposition Zposition Zrotation Xrotation Yrotation 
				JOINT Neck
				{
					OFFSET 16.3773 0.0 0.0
					CHANNELS 6 Xposition Yposition Zposition Zrotation Xrotation Yrotation 
					JOINT Head
					{
						OFFSET 6.45672 0.0 0.0
						CHANNELS 6 Xposition Yposition Zposition Zrotation Xrotation Yrotation 
						End Site
						{
							OFFSET 0.0 0.0 0.0
						}
					}
				}
				JOINT Shoulder_L
				{
					OFFSET 12.9942 -0.242716 4.98039
					CHANNELS 6 Xposition Yposition Zposition Zrotation Xrotation Yrotation 
					JOINT UpperArm_L
					{
						OFFSET 5.34809 0.0 0.0
						CHANNELS 6 Xposition Yposition Zposition Zrotation Xrotation Yrotation 
						JOINT LowerArm_L
						{
							OFFSET 24.3286 1.87007e-05 0.0
							CHANNELS 6 Xposition Yposition Zposition Zrotation Xrotation Yrotation 
							JOINT Hand_L
							{
								OFFSET 22.2916 0.0 0.0
								CHANNELS 6 Xposition Yposition Zposition Zrotation Xrotation Yrotation 
								End Site
								{
									OFFSET 0.0 0.0 0.0
								}
							}
						}
					}
				}
				JOINT Shoulder_R
				{
					OFFSET 12.9945 -0.242716 -4.98039
					CHANNELS 6 Xposition Yposition Zposition Zrotation Xrotation Yrotation 
					JOINT UpperArm_R
					{
						OFFSET -5.34813 0.0 0.0
						CHANNELS 6 Xposition Yposition Zposition Zrotation Xrotation Yrotation 
						JOINT LowerArm_R
						{
							OFFSET -24.3289 0.000322201 0.0
							CHANNELS 6 Xposition Yposition Zposition Zrotation Xrotation Yrotation 
							JOINT Hand_R
							{
								OFFSET -22.2915 -0.000108084 0.0
								CHANNELS 6 Xposition Yposition Zposition Zrotation Xrotation Yrotation 
								End Site
								{
									OFFSET 0.0 0.0 0.0
								}
							}
						}
					}
				}
			}
		}
		JOINT UpperLeg_L
		{
			OFFSET -2.19248 -6.46944 0.0
			CHANNELS 6 Xposition Yposition Zposition Zrotation Xrotation Yrotation 
			JOINT LowerLeg_L
			{
				OFFSET 39.0811 0.0 -1.23785e-05
				CHANNELS 6 Xposition Yposition Zposition Zrotation Xrotation Yrotation 
				JOINT Foot_L
				{
					OFFSET 40.9854 0.0 -1.26872e-05
					CHANNELS 6 Xposition Yposition Zposition Zrotation Xrotation Yrotation 
					JOINT Toes_L
					{
						OFFSET 11.7543 0.0 0.0
						CHANNELS 6 Xposition Yposition Zposition Zrotation Xrotation Yrotation 
						End Site
						{
							OFFSET 0.0 0.0 0.0
						}
					}
				}
			}
		}
		JOINT UpperLeg_R
		{
			OFFSET -2.19251 6.46944 0.0
			CHANNELS 6 Xposition Yposition Zposition Zrotation Xrotation Yrotation 
			JOINT LowerLeg_R
			{
				OFFSET -39.0811 -0.00228153 -0.0401928
				CHANNELS 6 Xposition Yposition Zposition Zrotation Xrotation Yrotation 
				JOINT Foot_R
				{
					OFFSET -40.9854 0.0 0.0
					CHANNELS 6 Xposition Yposition Zposition Zrotation Xrotation Yrotation 
					JOINT Toes_R
					{
						OFFSET -11.7543 0.0 0.0
						CHANNELS 6 Xposition Yposition Zposition Zrotation Xrotation Yrotation 
						End Site
						{
							OFFSET 0.0 0.0 0.0
						}
					}
				}
			}
		}
	}
}
MOTION
Frames:	8
Frame Time:	0.0333333
0.000000 0.000000 0.000000 0.000000 0.000000 -0.000000 -1.714500 85.111800 0.346791 87.782300 -3.679630 10.430300 15.735700 0.000005 -0.000001 79.646600 81.414200 -78.219400 8.984550 -0.406207 -0.000000 9.175450 -3.051860 3.097540 16.377300 -0.000001 -0.000001 -1.829750 0.680589 2.001780 6.456720 -0.000001 -0.000000 -5.391300 6.027440 -0.306829 12.994200 -0.242716 4.980390 -91.468100 4.887790 -73.259600 5.348090 -0.000007 -0.000001 -58.791600 37.586900 -17.042300 24.328600 0.000019 0.000005 10.267100 17.700600 -30.786100 22.291600 -0.000001 0.000005 14.558600 5.246610 1.523170 12.994500 -0.242716 -4.980390 86.855300 12.720000 -75.990100 -5.348130 -0.000001 -0.000004 -63.618000 13.604000 -0.866396 -24.328900 0.000322 -0.000009 -2.610360 -9.889250 -14.802000 -22.291500 -0.000108 -0.000004 11.528400 5.175050 3.382160 -2.192480 -6.469440 -0.000000 -173.133000 -6.499680 -10.474500 39.081100 -0.000007 -0.000012 -0.563788 0.415855 53.588600 40.985400 -0.000006 -0.000013 -2.344730 0.231069 -82.473200 11.754300 -0.000000 0.000003 -0.000384 -0.003199 -16.695700 -2.192510 6.469440 -0.000001 178.969000 12.323100 169.470000 -39.081100 -0.002282 -0.040193 0.071737 -0.051511 53.058400 -40.985400 0.000008 0.000006 6.205650 2.744850 -81.897900 -11.754300 -0.000006 -0.000006 -0.001209 -0.018333 -17.318600
0.000000 0.000000 0.000000 0.000000 0.000000 -0.000000 -2.177090 86.738000 0.877586 88.061000 -1.267300 9.105010 15.735700 0.000005 -0.000001 81.724800 82.865000 -81.251700 8.984550 -0.406207 -0.000000 6.367260 -2.053610 1.059330 16.377300 -0.000001 -0.000001 -0.920755 0.624892 1.476610 6.456720 -0.000001 -0.000000 -4.438240 4.887460 -0.280431 12.994200 -0.242716 4.980390 -91.540600 4.877230 -72.445200 5.348090 -0.000007 -0.000001 -59.945400 36.161900 -16.386600 24.328600 0.000019 0.000005 9.590260 17.466200 -29.376600 22.291600 -0.000001 0.000005 14.529900 5.179350 3.231790 12.994500 -0.242716 -4.980390 87.187000 11.220400 -75.827500 -5.348130 -0.000001 -0.000004 -62.752300 7.552370 -2.251490 -24.328900 0.000322 -0.000009 -1.058240 -7.043340 -8.569730 -22.291500 -0.000108 -0.000004 8.428710 5.118370 4.683930 -2.192480 -6.469440 -0.000000 -173.373000 -5.484890 -9.120620 39.081100 -0.000007 -0.000012 -0.471772 0.425229 47.971400 40.985400 -0.000006 -0.000013 -2.156520 1.399900 -79.702100 11.754300 -0.000000 0.000003 -0.000331 -0.002827 -16.682500 -2.192510 6.469440 -0.000001 178.895000 14.265200 171.359000 -39.081100 -0.002282 -0.040193 0.065450 -0.056699 47.646600 -40.985400 0.000008 0.000006 6.140260 2.627410 -79.439900 -11.754300 -0.000006 -0.000006 -0.001487 -0.022098 -17.471700
0.000000 0.000000 0.000000 0.000000 0.000000 -0.000000 -2.392600 88.579200 1.207150 88.556500 0.754088 6.881010 15.735700 0.000005 -0.000001 80.992400 84.570100 -81.734500 8.984550 -0.406207 -0.000000 2.950610 -1.667410 -1.439650 16.377300 -0.000001 -0.000001 0.525035 0.445590 1.565430 6.456720 -0.000001 -0.000000 -3.431140 3.850580 0.523624 12.994200 -0.242716 4.980390 -91.369600 4.016050 -71.149400 5.348090 -0.000007 -0.000001 -62.666100 33.366000 -12.922000 24.328600 0.000019 0.000005 8.930770 15.747800 -30.072700 22.291600 -0.000001 0.000005 13.500500 5.213110 2.380100 12.994500 -0.242716 -4.980390 87.619700 8.947520 -75.034400 -5.348130 -0.000001 -0.000004 -58.786300 -1.190800 -7.906370 -24.328900 0.000322 -0.000009 -1.235990 -9.613680 -7.355350 -22.291500 -0.000108 -0.000004 7.323550 5.094110 5.248520 -2.192480 -6.469440 -0.000000 -173.957000 -5.274420 -7.983300 39.081100 -0.000007 -0.000012 -0.347356 0.402028 40.828100 40.985400 -0.000006 -0.000013 -1.832720 2.752460 -76.033800 11.754300 -0.000000 0.000003 -0.000226 -0.002051 -16.654600 -2.192510 6.469440 -0.000001 178.691000 16.399300 172.692000 -39.081100 -0.002282 -0.040193 0.051775 -0.055747 41.022600 -40.985400 0.000008 0.000006 5.985890 3.344920 -76.009900 -11.754300 -0.000006 -0.000006 -0.088949 -0.130620 -17.782700
0.000000 0.000000 0.000000 0.000000 0.000000 -0.000000 -2.364510 89.996300 1.335700 88.776200 2.020640 4.981830 15.735700 0.000005 -0.000001 77.691200 85.924500 -79.283600 8.984550 -0.406207 -0.000000 0.177291 -1.631760 -3.180290 16.377300 -0.000001 -0.000001 1.986420 -0.171958 1.381860 6.456720 -0.000001 -0.000000 -2.490850 2.557110 1.308070 12.994200 -0.242716 4.980390 -91.211900 3.302120 -69.833700 5.348090 -0.000007 -0.000001 -65.038600 30.534500 -8.643600 24.328600 0.000019 0.000005 8.475830 13.756000 -32.077000 22.291600 -0.000001 0.000005 11.629700 5.266760 0.978579 12.994500 -0.242716 -4.980390 88.174200 6.628150 -74.561300 -5.348130 -0.000001 -0.000004 -53.239000 -12.394600 -18.709700 -24.328900 0.000322 -0.000009 -2.341570 -14.921500 -9.006920 -22.291500 -0.000108 -0.000004 10.831800 5.117190 4.737460 -2.192480 -6.469440 -0.000000 -174.176000 -6.579720 -6.911280 39.081100 -0.000007 -0.000012 -0.249805 0.362494 34.572200 40.985400 -0.000006 -0.000013 -1.292850 4.703780 -72.752500 11.754300 -0.000000 0.000003 -0.000144 -0.001403 -16.630900 -2.192510 6.469440 -0.000001 178.652000 18.380500 173.813000 -39.081100 -0.002282 -0.040193 0.040743 -0.053130 35.181100 -40.985400 0.000008 0.000006 6.025700 4.570360 -72.870600 -11.754300 -0.000006 -0.000006 -0.093783 -0.143738 -18.188300
0.000000 0.000000 0.000000 0.000000 0.000000 -0.000000 -2.183460 90.704600 1.294330 88.797900 2.111720 4.067540 15.735700 0.000005 -0.000001 78.277200 86.606500 -80.203800 8.984550 -0.406207 -0.000000 -1.138360 -1.229050 -3.864010 16.377300 -0.000001 -0.000001 2.648190 -0.673900 0.754123 6.456720 -0.000001 -0.000000 -2.141900 1.112510 1.273560 12.994200 -0.242716 4.980390 -91.247200 3.205720 -68.729400 5.348090 -0.000007 -0.000001 -65.905200 28.971300 -5.706960 24.328600 0.000019 0.000005 8.218650 12.520500 -33.673600 22.291600 -0.000001 0.000005 10.072600 5.295370 0.200730 12.994500 -0.242716 -4.980390 88.915000 4.265190 -75.721500 -5.348130 -0.000001 -0.000004 -47.716300 -24.353200 -31.702700 -24.328900 0.000322 -0.000009 -5.671360 -21.818600 -14.946500 -22.291500 -0.000108 -0.000004 14.683900 5.277710 0.714818 -2.192480 -6.469440 -0.000000 -174.145000 -8.703560 -6.109970 39.081100 -0.000007 -0.000012 -0.214720 0.355899 31.103600 40.985400 -0.000006 -0.000013 -0.758014 6.547870 -70.930300 11.754300 -0.000000 0.000003 -0.000106 -0.001085 -16.619100 -2.192510 6.469440 -0.000001 178.600000 19.314400 174.783000 -39.081100 -0.002282 -0.040193 0.032652 -0.047991 31.451900 -40.985400 0.000008 0.000006 5.957670 5.828860 -71.385100 -11.754300 -0.000006 -0.000006 -0.002741 -0.037642 -18.103900
0.000000 0.000000 0.000000 0.000000 0.000000 -0.000000 -1.935250 90.924400 1.193840 88.825800 1.818330 4.207380 15.735700 0.000005 -0.000001 86.919400 86.554700 -88.919200 8.984550 -0.406207 -0.000000 -0.886106 -0.219305 -3.999550 16.377300 -0.000001 -0.000001 2.375070 -1.146880 0.224569 6.456720 -0.000001 -0.000000 -2.835880 0.059640 0.553610 12.994200 -0.242716 4.980390 -91.510700 3.793470 -68.267000 5.348090 -0.000007 -0.000001 -64.636800 29.240900 -4.910390 24.328600 0.000019 0.000005 8.482850 12.744500 -34.061900 22.291600 -0.000001 0.000005 10.128600 5.293310 0.258611 12.994500 -0.242716 -4.980390 89.850200 0.672753 -77.501600 -5.348130 -0.000001 -0.000004 -42.121800 -36.057300 -42.210900 -24.328900 0.000322 -0.000009 -11.814000 -23.960000 -27.241600 -22.291500 -0.000108 -0.000004 15.218600 5.469850 -5.397830 -2.192480 -6.469440 -0.000000 -174.220000 -9.555440 -5.398260 39.081100 -0.000007 -0.000012 -0.199118 0.345039 29.989100 40.985400 -0.000006 -0.000013 -0.496671 7.058130 -70.359900 11.754300 -0.000000 0.000003 -0.000107 -0.001093 -16.619400 -2.192510 6.469440 -0.000001 178.177000 19.911900 176.016000 -39.081100 -0.002282 -0.040193 0.028741 -0.044941 29.511500 -40.985400 0.000008 0.000006 6.087670 6.927780 -71.445100 -11.754300 -0.000006 -0.000006 -0.002856 -0.038963 -18.157600
0.000000 0.000000 0.000000 0.000000 0.000000 -0.000000 -1.779500 91.040900 0.966545 88.976400 2.239610 4.346620 15.735700 0.000005 -0.000001 94.620500 86.148400 -96.622700 8.984550 -0.406207 -0.000000 -0.071360 0.757254 -4.001530 16.377300 -0.000001 -0.000001 1.730870 -1.746570 0.447825 6.456720 -0.000001 -0.000000 -4.220780 -0.536682 -1.223890 12.994200 -0.242716 4.980390 -92.080600 5.194720 -68.136500 5.348090 -0.000007 -0.000001 -61.399900 30.367100 -6.256810 24.328600 0.000019 0.000005 8.979630 14.395900 -32.442200 22.291600 -0.000001 0.000005 11.310300 5.278890 0.653832 12.994500 -0.242716 -4.980390 90.786500 -3.615030 -77.728200 -5.348130 -0.000001 -0.000004 -34.538000 -46.859900 -49.342700 -24.328900 0.000322 -0.000009 -14.396000 -17.791400 -40.057100 -22.291500 -0.000108 -0.000004 18.367400 5.587820 -10.396400 -2.192480 -6.469440 -0.000000 -174.412000 -9.921450 -5.196350 39.081100 -0.000007 -0.000012 -0.188607 0.334219 29.437300 40.985400 -0.000006 -0.000013 -0.210411 7.769650 -69.899100 11.754300 -0.000000 0.000003 -0.000116 -0.001167 -16.622200 -2.192510 6.469440 -0.000001 177.659000 20.787700 176.662000 -39.081100 -0.002282 -0.040193 -0.008801 0.022265 28.534200 -40.985400 0.000008 0.000006 5.498210 7.654290 -71.265500 -11.754300 -0.000006 -0.000006 -0.002827 -0.038626 -18.143900
0.000000 0.000000 0.000000 0.000000 0.000000 -0.000000 -1.939620 91.243300 0.684634 89.122100 4.038870 3.662650 15.735700 0.000005 -0.000001 98.771700 86.146800 -100.834000 8.984550 -0.406207 -0.000000 -0.122698 1.316820 -4.121350 16.377300 -0.000001 -0.000001 1.562850 -3.179500 1.945500 6.456720 -0.000001 -0.000000 -4.915930 -0.801343 -3.558250 12.994200 -0.242716 4.980390 -92.367800 5.993550 -68.396300 5.348090 -0.000007 -0.000001 -59.040400 30.617700 -8.135660 24.328600 0.000019 0.000005 9.567250 18.192200 -28.372500 22.291600 -0.000001 0.000005 12.645300 5.251560 1.387210 12.994500 -0.242716 -4.980390 92.258700 -8.268420 -74.677900 -5.348130 -0.000001 -0.000004 -23.848700 -53.838300 -51.942600 -24.328900 0.000322 -0.000009 -14.020500 -13.846200 -46.215800 -22.291500 -0.000108 -0.000004 25.487500 5.653600 -15.361500 -2.192480 -6.469440 -0.000000 -174.420000 -10.612100 -5.875960 39.081100 -0.000007 -0.000012 -0.174138 0.321653 28.430700 40.985400 -0.000006 -0.000013 0.208974 10.123000 -68.982300 11.754300 -0.000000 0.000003 -0.000124 -0.001240 -16.624900 -2.192510 6.469440 -0.000001 177.718000 22.545400 176.470000 -39.081100 -0.002282 -0.040193 -0.025437 0.055318 27.457400 -40.985400 0.000008 0.000006 5.170810 7.753220 -70.621200 -11.754300 -0.000006 -0.000006 -0.002636 -0.036408 -18.053700
